<?xml version="1.0" encoding="utf-8"?>
<!-- Generator: Adobe Illustrator 25.2.1, SVG Export Plug-In . SVG Version: 6.00 Build 0)  -->
<svg version="1.1" id="레이어_1" xmlns="http://www.w3.org/2000/svg" xmlns:xlink="http://www.w3.org/1999/xlink" x="0px"
	 y="0px" viewBox="0 0 925 279" style="enable-background:new 0 0 925 279;" xml:space="preserve">
<style type="text/css">
	.st0{fill:none;stroke:#FFFFFF;stroke-width:2;}
</style>
<g>
	<path class="st0" d="M115.3,159.9c7.3-8,13.7-15.1,19-21.1c5.3-6,9.4-11.9,12.2-17.6s4.3-11.7,4.3-18.1c0-3.1-0.5-6-1.4-8.9
		c-0.9-2.8-2.5-5.3-4.6-7.5s-4.8-3.8-8-5.1c-3.2-1.3-7-2-11.5-2c-5.9,0-11.1,1.6-15.6,4.8c-4.5,3.2-8,7.5-10.5,13
		c-2.5,5.4-3.7,11.5-3.7,18.1H19.1c0-17.8,4-34.3,12.1-49.7c8-15.4,20.2-27.9,36.4-37.5C83.7,18.8,103.9,14,128,14
		c16.3,0,30.9,2.3,43.8,6.9c12.9,4.6,23.8,10.9,32.7,18.8c8.9,7.9,15.6,16.9,20.2,26.8c4.6,9.9,6.9,20.2,6.9,30.9
		c0,13.7-3.4,25.9-10.3,36.4c-6.9,10.5-16,20.2-27.3,28.9l-44.7,34.4h91.2v71H8.4L115.3,159.9z"/>
	<path class="st0" d="M281,72.6c9.2-19.2,22.1-33.7,38.7-43.5c16.6-9.8,35.7-14.7,57.5-14.7c23,0,42.7,4.9,59.1,14.7
		c16.4,9.8,29,24.3,37.8,43.5c8.8,19.2,13.1,43,13.1,71.4c0,28.4-4.4,52.2-13.1,71.4c-8.8,19.2-21.4,33.7-37.8,43.5
		c-16.5,9.8-36.2,14.7-59.1,14.7c-21.8,0-40.9-4.9-57.5-14.7c-16.6-9.8-29.5-24.3-38.7-43.5c-9.2-19.2-13.8-43-13.8-71.4
		C267.2,115.6,271.8,91.8,281,72.6z M344.4,170.8c1.8,7.9,4.3,14.7,7.5,20.2c3.2,5.6,6.9,9.8,11.2,12.6s9,4.3,14.2,4.3
		c5.2,0,9.9-1.4,14.2-4.3c4.3-2.8,8-7,11.2-12.6c3.2-5.6,5.7-12.3,7.5-20.2c1.8-7.9,2.7-16.9,2.7-26.8c0-9.9-0.9-18.9-2.7-26.8
		c-1.8-7.9-4.3-14.7-7.5-20.2c-3.2-5.6-6.9-9.8-11.2-12.6c-4.3-2.8-9-4.3-14.2-4.3c-5.2,0-9.9,1.4-14.2,4.3s-8,7-11.2,12.6
		c-3.2,5.6-5.7,12.3-7.5,20.2c-1.8,7.9-2.7,16.9-2.7,26.8C341.7,153.9,342.6,162.8,344.4,170.8z"/>
	<path class="st0" d="M615.4,159.9c7.3-8,13.7-15.1,19-21.1c5.3-6,9.4-11.9,12.2-17.6s4.3-11.7,4.3-18.1c0-3.1-0.5-6-1.4-8.9
		c-0.9-2.8-2.5-5.3-4.6-7.5s-4.8-3.8-8-5.1c-3.2-1.3-7-2-11.5-2c-5.9,0-11.1,1.6-15.6,4.8c-4.5,3.2-8,7.5-10.5,13
		c-2.5,5.4-3.7,11.5-3.7,18.1h-76.3c0-17.8,4-34.3,12.1-49.7c8-15.4,20.2-27.9,36.4-37.5c16.2-9.6,36.4-14.4,60.5-14.4
		c16.3,0,30.9,2.3,43.8,6.9c12.9,4.6,23.8,10.9,32.7,18.8c8.9,7.9,15.6,16.9,20.2,26.8c4.6,9.9,6.9,20.2,6.9,30.9
		c0,13.7-3.4,25.9-10.3,36.4c-6.9,10.5-16,20.2-27.3,28.9l-44.7,34.4h91.2v71H508.6L615.4,159.9z"/>
	<path class="st0" d="M774.5,40.3l140.2-25.9v253.8h-74.5V90.7l-65.7,14.6V40.3z"/>
</g>
</svg>
