<?xml version="1.0" encoding="utf-8"?>
<!-- Generator: Adobe Illustrator 25.2.1, SVG Export Plug-In . SVG Version: 6.00 Build 0)  -->
<svg version="1.1" id="레이어_1" xmlns="http://www.w3.org/2000/svg" xmlns:xlink="http://www.w3.org/1999/xlink" x="0px"
	 y="0px" viewBox="0 0 271.8 95.2" style="enable-background:new 0 0 271.8 95.2;" xml:space="preserve">
<style type="text/css">
	.st0{fill:none;stroke:#ABADD6;stroke-width:0.25;stroke-miterlimit:10;}
</style>
<path class="st0" d="M27.3,64.5c2,1.9,4.1,3.4,6.4,4.4s4.6,1.5,6.9,1.5c2,0,3.6-0.4,5-1.2c1.4-0.8,2-2.1,2-3.8c0-1.1-0.4-2-1.1-2.7
	c-0.7-0.8-2.1-1.6-4.2-2.6c-2.1-1-5.3-2.3-9.6-4c-1.9-0.8-4-1.8-6.5-3.1c-2.4-1.3-4.8-3-7-5s-4.1-4.6-5.5-7.5S11.5,34,11.5,30
	c0-5.2,1.4-9.6,4.2-13.2s6.5-6.3,11.1-8.1S36.4,6,41.9,6c5.9,0,11,0.9,15.3,2.7c4.2,1.8,7.7,4.1,10.5,6.8c2.7,2.7,4.8,5.5,6.3,8.2
	L55.5,33.9c-1.2-1.9-2.5-3.4-4-4.5s-3-1.9-4.5-2.4s-3-0.8-4.4-0.8c-1.7,0-3.1,0.3-4.2,0.9c-1.1,0.6-1.6,1.6-1.6,2.8
	c0,1.6,0.8,2.9,2.3,3.9s3.6,2,6.1,2.8c2.6,0.9,5.4,1.9,8.5,3c3.2,1.1,6,2.5,8.5,4c2.5,1.6,4.6,3.4,6.4,5.4c1.8,2.1,3.1,4.3,4,6.9
	c0.9,2.5,1.4,5.4,1.4,8.5c0,4.4-0.9,8.3-2.7,11.7c-1.8,3.4-4.2,6.2-7.3,8.4c-3,2.2-6.5,3.9-10.3,5s-7.8,1.7-11.8,1.7
	c-5.6,0-10.9-0.9-15.7-2.8s-9-4.4-12.6-7.7c-3.5-3.3-6.2-6.9-8-10.9l16.7-12.3C23.6,60.2,25.3,62.5,27.3,64.5z"/>
<polygon class="st0" points="138.1,29.2 138.1,8.1 109.4,8.1 102.8,8.1 85.7,8.1 85.7,87.9 109.4,87.9 109.4,60 137,60 137,40.6 
	109.4,40.6 109.4,29.2 "/>
<path class="st0" d="M239.1,8.1H269L232.9,93l-26.5-39.6L179.9,93L143.8,8.1h29.9l12.2,37.5l20.5-41.5l20.5,41.5L239.1,8.1z"/>
</svg>
